<svg xmlns="http://www.w3.org/2000/svg" xmlns:xlink="http://www.w3.org/1999/xlink" width="1024" zoomAndPan="magnify" viewBox="0 0 768 767.999994" height="1024" preserveAspectRatio="xMidYMid meet" version="1.0"><defs><g/><clipPath id="8d6a37abfc"><path d="M 13.863281 16.246094 L 749.367188 16.246094 L 749.367188 751.753906 L 13.863281 751.753906 Z M 13.863281 16.246094 " clip-rule="nonzero"/></clipPath><clipPath id="687020a10b"><path d="M 381.613281 16.246094 C 178.511719 16.246094 13.863281 180.894531 13.863281 384 C 13.863281 587.105469 178.511719 751.753906 381.613281 751.753906 C 584.71875 751.753906 749.367188 587.105469 749.367188 384 C 749.367188 180.894531 584.71875 16.246094 381.613281 16.246094 Z M 381.613281 16.246094 " clip-rule="nonzero"/></clipPath><clipPath id="f6e832f1c5"><path d="M 0.863281 0.246094 L 736.367188 0.246094 L 736.367188 735.753906 L 0.863281 735.753906 Z M 0.863281 0.246094 " clip-rule="nonzero"/></clipPath><clipPath id="3974703cc3"><path d="M 368.613281 0.246094 C 165.511719 0.246094 0.863281 164.894531 0.863281 368 C 0.863281 571.105469 165.511719 735.753906 368.613281 735.753906 C 571.71875 735.753906 736.367188 571.105469 736.367188 368 C 736.367188 164.894531 571.71875 0.246094 368.613281 0.246094 Z M 368.613281 0.246094 " clip-rule="nonzero"/></clipPath><clipPath id="af81070489"><rect x="0" width="737" y="0" height="736"/></clipPath><clipPath id="30f15bccc9"><rect x="0" width="403" y="0" height="768"/></clipPath></defs><g clip-path="url(#8d6a37abfc)"><g clip-path="url(#687020a10b)"><g transform="matrix(1, 0, 0, 1, 13, 16)"><g clip-path="url(#af81070489)"><g clip-path="url(#f6e832f1c5)"><g clip-path="url(#3974703cc3)"><path fill="#1a1a1a" d="M 0.863281 0.246094 L 736.367188 0.246094 L 736.367188 735.753906 L 0.863281 735.753906 Z M 0.863281 0.246094 " fill-opacity="1" fill-rule="nonzero"/></g></g></g></g></g></g><g transform="matrix(1, 0, 0, 1, 192, -0.000000000000057351)"><g clip-path="url(#30f15bccc9)"><g fill="#ffffff" fill-opacity="1"><g transform="translate(0.603035, 626.357278)"><g><path d="M 36.453125 -21.875 C 51.921875 -22.3125 62.96875 -25.84375 69.59375 -32.46875 C 76.226562 -39.101562 79.988281 -46.953125 80.875 -56.015625 C 81.757812 -65.078125 82.203125 -80.875 82.203125 -103.40625 L 82.203125 -389.78125 C 82.203125 -408.34375 82.863281 -424.253906 84.1875 -437.515625 L 36.453125 -434.859375 L 36.453125 -464.03125 C 98.328125 -464.914062 147.601562 -465.359375 184.28125 -465.359375 C 250.132812 -465.359375 299.960938 -453.867188 333.765625 -430.890625 C 367.578125 -407.910156 384.484375 -374.101562 384.484375 -329.46875 C 384.484375 -303.832031 377.742188 -279.300781 364.265625 -255.875 C 350.785156 -232.457031 327.582031 -213.015625 294.65625 -197.546875 C 261.738281 -182.078125 218.097656 -174.34375 163.734375 -174.34375 C 153.566406 -174.34375 145.613281 -174.5625 139.875 -175 L 139.875 -78.890625 C 139.875 -55.460938 139.210938 -38.003906 137.890625 -26.515625 L 198.875 -29.828125 L 198.875 0 L 36.453125 0 Z M 182.96875 -200.203125 C 208.15625 -200.203125 231.242188 -205.171875 252.234375 -215.109375 C 273.222656 -225.054688 289.796875 -239.421875 301.953125 -258.203125 C 314.109375 -276.984375 320.1875 -298.96875 320.1875 -324.15625 C 320.1875 -363.9375 308.03125 -393.101562 283.71875 -411.65625 C 259.414062 -430.21875 225.832031 -439.5 182.96875 -439.5 C 167.9375 -439.5 157.4375 -436.40625 151.46875 -430.21875 C 145.507812 -424.039062 142.085938 -416.640625 141.203125 -408.015625 C 140.316406 -399.398438 139.875 -383.601562 139.875 -360.625 L 139.875 -202.1875 C 150.925781 -200.863281 165.289062 -200.203125 182.96875 -200.203125 Z M 182.96875 -200.203125 "/></g></g></g></g></g></svg>